{"accessors" : [{"bufferView" : 0, "byteOffset" : 0, "componentType" : 5125, "count" : 165288, "type" : "SCALAR", "max" : [165287], "min" : [0]}, {"bufferView" : 1, "byteOffset" : 0, "componentType" : 5126, "count" : 165288, "type" : "VEC3", "max" : [1.823909044265747, 8.235037803649902, 8.211528778076172], "min" : [-4.115856170654297, -0.02946699969470501, -17.387786865234375], "name" : "POSITION"}, {"bufferView" : 1, "byteOffset" : 12, "componentType" : 5126, "count" : 165288, "type" : "VEC3", "max" : [0.9999757409095764, 0.9999310374259949, 1.0000035762786865], "min" : [-0.999849796295166, -1.0000001192092896, -0.9999344348907471], "name" : "NORMAL"}, {"bufferView" : 1, "byteOffset" : 24, "componentType" : 5126, "count" : 165288, "type" : "VEC2", "max" : [0.998000979423523, 0.9943680167198181], "min" : [0.008004000410437584, 0.00024497509002685547], "name" : "TEXCOORD_0"}, {"bufferView" : 0, "byteOffset" : 661152, "componentType" : 5123, "count" : 3240, "type" : "SCALAR", "max" : [3239], "min" : [0]}, {"bufferView" : 2, "byteOffset" : 0, "componentType" : 5126, "count" : 3240, "type" : "VEC3", "max" : [0.8444939851760864, 7.06342887878418, 6.460377216339111], "min" : [0.5991430282592773, 6.817837238311768, 6.217341899871826], "name" : "POSITION"}, {"bufferView" : 2, "byteOffset" : 12, "componentType" : 5126, "count" : 3240, "type" : "VEC3", "max" : [0.9974711537361145, 0.9985477924346924, 0.9979336261749268], "min" : [-0.9974713921546936, -0.9985553026199341, -0.9951789379119873], "name" : "NORMAL"}, {"bufferView" : 2, "byteOffset" : 24, "componentType" : 5126, "count" : 3240, "type" : "VEC2", "max" : [0.7800687551498413, 0.7800687551498413], "min" : [0.21993127465248108, 0.2199312448501587], "name" : "TEXCOORD_0"}, {"bufferView" : 0, "byteOffset" : 667632, "componentType" : 5123, "count" : 2280, "type" : "SCALAR", "max" : [2279], "min" : [0]}, {"bufferView" : 3, "byteOffset" : 0, "componentType" : 5126, "count" : 2280, "type" : "VEC3", "max" : [0.8383600115776062, 7.057290077209473, 6.454081058502197], "min" : [0.6052770018577576, 6.823976993560791, 6.225289821624756], "name" : "POSITION"}, {"bufferView" : 3, "byteOffset" : 12, "componentType" : 5126, "count" : 2280, "type" : "VEC3", "max" : [0.9974711537361145, 0.9984589219093323, 0.9888418912887573], "min" : [-0.997471272945404, -0.9984590411186218, -0.9880639910697937], "name" : "NORMAL"}, {"bufferView" : 3, "byteOffset" : 24, "componentType" : 5126, "count" : 2280, "type" : "VEC2", "max" : [1, 1], "min" : [0, 0], "name" : "TEXCOORD_0"}, {"bufferView" : 0, "byteOffset" : 672192, "componentType" : 5123, "count" : 2520, "type" : "SCALAR", "max" : [2519], "min" : [0]}, {"bufferView" : 4, "byteOffset" : 0, "componentType" : 5126, "count" : 2520, "type" : "VEC3", "max" : [0.8465179800987244, 7.065455913543701, 6.465517044067383], "min" : [0.5971189737319946, 6.815810203552246, 6.214877128601074], "name" : "POSITION"}, {"bufferView" : 4, "byteOffset" : 12, "componentType" : 5126, "count" : 2520, "type" : "VEC3", "max" : [0.997471272945404, 0.9984586238861084, 0.9972779154777527], "min" : [-0.997471272945404, -0.9984580278396606, -0.9972630739212036], "name" : "NORMAL"}, {"bufferView" : 4, "byteOffset" : 24, "componentType" : 5126, "count" : 2520, "type" : "VEC2", "max" : [1, 1], "min" : [0, 0], "name" : "TEXCOORD_0"}, {"bufferView" : 0, "byteOffset" : 677232, "componentType" : 5123, "count" : 2520, "type" : "SCALAR", "max" : [2519], "min" : [0]}, {"bufferView" : 5, "byteOffset" : 0, "componentType" : 5126, "count" : 2520, "type" : "VEC3", "max" : [-0.1284639984369278, 7.065606117248535, 6.441415786743164], "min" : [-0.37761300802230835, 6.815703868865967, 6.19143009185791], "name" : "POSITION"}, {"bufferView" : 5, "byteOffset" : 12, "componentType" : 5126, "count" : 2520, "type" : "VEC3", "max" : [0.9964756369590759, 0.999478280544281, 0.9998185038566589], "min" : [-0.998333752155304, -0.9994779229164124, -0.9998185038566589], "name" : "NORMAL"}, {"bufferView" : 5, "byteOffset" : 24, "componentType" : 5126, "count" : 2520, "type" : "VEC2", "max" : [1, 1], "min" : [0, 0], "name" : "TEXCOORD_0"}, {"bufferView" : 0, "byteOffset" : 682272, "componentType" : 5123, "count" : 3240, "type" : "SCALAR", "max" : [3239], "min" : [0]}, {"bufferView" : 6, "byteOffset" : 0, "componentType" : 5126, "count" : 3240, "type" : "VEC3", "max" : [-0.13048699498176575, 7.063577175140381, 6.43938684463501], "min" : [-0.3755910098552704, 6.817732810974121, 6.193459987640381], "name" : "POSITION"}, {"bufferView" : 6, "byteOffset" : 12, "componentType" : 5126, "count" : 3240, "type" : "VEC3", "max" : [0.9964759349822998, 0.9994192719459534, 0.9998185038566589], "min" : [-0.9964760541915894, -0.9994129538536072, -0.9998188614845276], "name" : "NORMAL"}, {"bufferView" : 6, "byteOffset" : 24, "componentType" : 5126, "count" : 3240, "type" : "VEC2", "max" : [0.7800687551498413, 0.7800687551498413], "min" : [0.21993127465248108, 0.2199312448501587], "name" : "TEXCOORD_0"}, {"bufferView" : 0, "byteOffset" : 688752, "componentType" : 5123, "count" : 2280, "type" : "SCALAR", "max" : [2279], "min" : [0]}, {"bufferView" : 7, "byteOffset" : 0, "componentType" : 5126, "count" : 2280, "type" : "VEC3", "max" : [-0.13661499321460724, 7.057431221008301, 6.433238983154297], "min" : [-0.3694629967212677, 6.823878765106201, 6.199607849121094], "name" : "POSITION"}, {"bufferView" : 7, "byteOffset" : 12, "componentType" : 5126, "count" : 2280, "type" : "VEC3", "max" : [0.9964756369590759, 0.999477744102478, 0.9998183846473694], "min" : [-0.9964755177497864, -0.9994776248931885, -0.9998183846473694], "name" : "NORMAL"}, {"bufferView" : 7, "byteOffset" : 24, "componentType" : 5126, "count" : 2280, "type" : "VEC2", "max" : [1, 1], "min" : [0, 0], "name" : "TEXCOORD_0"}, {"bufferView" : 0, "byteOffset" : 693312, "componentType" : 5123, "count" : 61950, "type" : "SCALAR", "max" : [61949], "min" : [0]}, {"bufferView" : 8, "byteOffset" : 0, "componentType" : 5126, "count" : 61950, "type" : "VEC3", "max" : [0.784151017665863, 6.004899024963379, 8.118158340454102], "min" : [-0.33140599727630615, 5.237215995788574, 6.579967021942139], "name" : "POSITION"}, {"bufferView" : 8, "byteOffset" : 12, "componentType" : 5126, "count" : 61950, "type" : "VEC3", "max" : [0.9999635219573975, 1, 0.9999610781669617], "min" : [-0.9998270273208618, -0.9999271631240845, -0.999565064907074], "name" : "NORMAL"}, {"bufferView" : 8, "byteOffset" : 24, "componentType" : 5126, "count" : 61950, "type" : "VEC2", "max" : [0.8464099764823914, 1], "min" : [0.15358999371528625, 0], "name" : "TEXCOORD_0"}, {"bufferView" : 0, "byteOffset" : 817212, "componentType" : 5123, "count" : 11616, "type" : "SCALAR", "max" : [11615], "min" : [0]}, {"bufferView" : 9, "byteOffset" : 0, "componentType" : 5126, "count" : 11616, "type" : "VEC3", "max" : [1.969756007194519, 3.834397077560425, 3.043454885482788], "min" : [-2.211143970489502, -0.010855999775230885, -6.4499921798706055], "name" : "POSITION"}, {"bufferView" : 9, "byteOffset" : 12, "componentType" : 5126, "count" : 11616, "type" : "VEC3", "max" : [0.9984451532363892, 0.9997953176498413, 0.9970349073410034], "min" : [-0.9966555237770081, -1.0000019073486328, -0.9995927810668945], "name" : "NORMAL"}, {"bufferView" : 9, "byteOffset" : 24, "componentType" : 5126, "count" : 11616, "type" : "VEC2", "max" : [1, 1], "min" : [0, -1.2993812561035156E-05], "name" : "TEXCOORD_0"}], "asset" : {"generator" : "Aspose.3D 24.6.0", "version" : "2.0"}, "buffers" : [{"uri" : "buffer.bin", "byteLength" : 8998372}], "bufferViews" : [{"buffer" : 0, "byteOffset" : 0, "byteLength" : 840444, "target" : 34963}, {"buffer" : 0, "byteOffset" : 840448, "byteLength" : 5289216, "byteStride" : 32, "target" : 34962}, {"buffer" : 0, "byteOffset" : 6129668, "byteLength" : 103680, "byteStride" : 32, "target" : 34962}, {"buffer" : 0, "byteOffset" : 6233352, "byteLength" : 72960, "byteStride" : 32, "target" : 34962}, {"buffer" : 0, "byteOffset" : 6306316, "byteLength" : 80640, "byteStride" : 32, "target" : 34962}, {"buffer" : 0, "byteOffset" : 6386960, "byteLength" : 80640, "byteStride" : 32, "target" : 34962}, {"buffer" : 0, "byteOffset" : 6467604, "byteLength" : 103680, "byteStride" : 32, "target" : 34962}, {"buffer" : 0, "byteOffset" : 6571288, "byteLength" : 72960, "byteStride" : 32, "target" : 34962}, {"buffer" : 0, "byteOffset" : 6644252, "byteLength" : 1982400, "byteStride" : 32, "target" : 34962}, {"buffer" : 0, "byteOffset" : 8626656, "byteLength" : 371712, "byteStride" : 32, "target" : 34962}], "images" : [{"uri" : "C:/Users/Joel/Desktop/TrexModelByJoel3d/TrexBump012714.jpg"}, {"uri" : "C:/Users/Joel/Desktop/TrexModelByJoel3d/TrexColor01152015.jpg"}, {"uri" : "C:/Users/Joel/Desktop/TrexModelByJoel3d/TrexEyeColor.jpg"}, {"uri" : "C:/Users/Joel/Desktop/TrexModelByJoel3d/TrexTooth.png"}, {"uri" : "C:/Users/Joel/Desktop/TrexModelByJoel3d/TrexTooth.png"}, {"uri" : "C:/Users/Joel/Desktop/TrexModelByJoel3d/TrexTooth.png"}, {"uri" : "C:/Users/Joel/Desktop/TrexModelByJoel3d/TrexTooth.png"}], "materials" : [{"name" : "SkinColor", "pbrMetallicRoughness" : {"baseColorFactor" : [1, 1, 1, 1], "baseColorTexture" : {"index" : 1, "texCoord" : 0}, "metallicFactor" : 1, "roughnessFactor" : 1}, "normalTexture" : {"index" : 0, "texCoord" : 0, "scale" : 1}, "emissiveFactor" : [0, 0, 0], "alphaMode" : "OPAQUE", "doubleSided" : false}, {"name" : "eyeColor", "pbrMetallicRoughness" : {"baseColorFactor" : [1, 1, 1, 1], "baseColorTexture" : {"index" : 2, "texCoord" : 0}, "metallicFactor" : 1, "roughnessFactor" : 1}, "emissiveFactor" : [0, 0, 0], "alphaMode" : "OPAQUE", "doubleSided" : false}, {"name" : "blackMatteColor", "pbrMetallicRoughness" : {"baseColorFactor" : [0, 0, 0, 1], "metallicFactor" : 1, "roughnessFactor" : 1}, "emissiveFactor" : [0, 0, 0], "alphaMode" : "OPAQUE", "doubleSided" : false}, {"name" : "eyeTransparentColor", "pbrMetallicRoughness" : {"baseColorFactor" : [1, 1, 1, 0], "metallicFactor" : 1, "roughnessFactor" : 1}, "emissiveFactor" : [0, 0, 0], "alphaMode" : "BLEND", "doubleSided" : false}, {"name" : "teethTexture", "pbrMetallicRoughness" : {"baseColorFactor" : [1, 1, 1, 1], "baseColorTexture" : {"index" : 4, "texCoord" : 0}, "metallicFactor" : 1, "roughnessFactor" : 1}, "normalTexture" : {"index" : 3, "texCoord" : 0, "scale" : 1}, "emissiveFactor" : [0, 0, 0], "alphaMode" : "OPAQUE", "doubleSided" : false}, {"name" : "clawColor", "pbrMetallicRoughness" : {"baseColorFactor" : [1, 1, 1, 1], "baseColorTexture" : {"index" : 6, "texCoord" : 0}, "metallicFactor" : 1, "roughnessFactor" : 1}, "normalTexture" : {"index" : 5, "texCoord" : 0, "scale" : 1}, "emissiveFactor" : [0, 0, 0], "alphaMode" : "OPAQUE", "doubleSided" : false}], "meshes" : [{"primitives" : [{"attributes" : {"POSITION" : 1, "NORMAL" : 2, "TEXCOORD_0" : 3}, "indices" : 0, "material" : 0, "mode" : 4}], "name" : ""}, {"primitives" : [{"attributes" : {"POSITION" : 5, "NORMAL" : 6, "TEXCOORD_0" : 7}, "indices" : 4, "material" : 1, "mode" : 4}], "name" : ""}, {"primitives" : [{"attributes" : {"POSITION" : 9, "NORMAL" : 10, "TEXCOORD_0" : 11}, "indices" : 8, "material" : 2, "mode" : 4}], "name" : ""}, {"primitives" : [{"attributes" : {"POSITION" : 13, "NORMAL" : 14, "TEXCOORD_0" : 15}, "indices" : 12, "material" : 3, "mode" : 4}], "name" : ""}, {"primitives" : [{"attributes" : {"POSITION" : 17, "NORMAL" : 18, "TEXCOORD_0" : 19}, "indices" : 16, "material" : 3, "mode" : 4}], "name" : ""}, {"primitives" : [{"attributes" : {"POSITION" : 21, "NORMAL" : 22, "TEXCOORD_0" : 23}, "indices" : 20, "material" : 1, "mode" : 4}], "name" : ""}, {"primitives" : [{"attributes" : {"POSITION" : 25, "NORMAL" : 26, "TEXCOORD_0" : 27}, "indices" : 24, "material" : 2, "mode" : 4}], "name" : ""}, {"primitives" : [{"attributes" : {"POSITION" : 29, "NORMAL" : 30, "TEXCOORD_0" : 31}, "indices" : 28, "material" : 4, "mode" : 4}], "name" : ""}, {"primitives" : [{"attributes" : {"POSITION" : 33, "NORMAL" : 34, "TEXCOORD_0" : 35}, "indices" : 32, "material" : 5, "mode" : 4}], "name" : ""}], "nodes" : [{"mesh" : 0, "name" : "Skin"}, {"mesh" : 1, "name" : "R_eye"}, {"mesh" : 2, "name" : "L_black"}, {"mesh" : 3, "name" : "L_eyeTransparent"}, {"mesh" : 4, "name" : "R_eyeTransparent"}, {"mesh" : 5, "name" : "L_Eye1"}, {"mesh" : 6, "name" : "R_Black"}, {"mesh" : 7, "name" : "teeth1"}, {"mesh" : 8, "name" : "claws1"}, {"children" : [0, 1, 2, 3, 4, 5, 6, 7, 8], "name" : "trexGeoGrp"}], "samplers" : [{"magFilter" : 9729, "minFilter" : 9729, "wrapS" : 10497, "wrapT" : 10497}, {"magFilter" : 9729, "minFilter" : 9729, "wrapS" : 10497, "wrapT" : 10497}, {"magFilter" : 9729, "minFilter" : 9729, "wrapS" : 10497, "wrapT" : 10497}, {"magFilter" : 9729, "minFilter" : 9729, "wrapS" : 10497, "wrapT" : 10497}, {"magFilter" : 9729, "minFilter" : 9729, "wrapS" : 10497, "wrapT" : 10497}, {"magFilter" : 9729, "minFilter" : 9729, "wrapS" : 10497, "wrapT" : 10497}, {"magFilter" : 9729, "minFilter" : 9729, "wrapS" : 10497, "wrapT" : 10497}], "scene" : 0, "scenes" : [{"nodes" : [9]}], "textures" : [{"sampler" : 0, "source" : 0, "name" : "file4"}, {"sampler" : 1, "source" : 1, "name" : "file3"}, {"sampler" : 2, "source" : 2, "name" : "file2"}, {"sampler" : 3, "source" : 3, "name" : "phong1SG1BM"}, {"sampler" : 4, "source" : 4, "name" : "phong1SG1F"}, {"sampler" : 5, "source" : 5, "name" : "phong2SG1BM"}, {"sampler" : 6, "source" : 6, "name" : "phong2SG1F"}]}